<svg version="1.2" xmlns="http://www.w3.org/2000/svg" xmlns:xlink="http://www.w3.org/1999/xlink" overflow="visible" preserveAspectRatio="none" viewBox="0 0 24 24" width="30" height="30"><g><path xmlns:default="http://www.w3.org/2000/svg" id="wrench" d="M7.01,17.9c-0.26,0.25-0.67,0.24-0.92-0.02c-0.25-0.26-0.24-0.67,0.02-0.92c0.26-0.25,0.67-0.24,0.92,0.02  c0.12,0.12,0.18,0.28,0.18,0.45C7.21,17.61,7.13,17.78,7.01,17.9z M13.91,13.06c-1.37-0.55-2.45-1.63-3-3l-7.05,7.09  c-0.26,0.25-0.4,0.59-0.4,0.95c-0.01,0.36,0.14,0.7,0.4,0.94l1.15,1.12c0.25,0.25,0.59,0.39,0.95,0.39  c0.35,0.01,0.69-0.14,0.94-0.39l7.1-7.1l0,0H13.91z M20.51,8.53c0-0.09-0.03-0.19-0.09-0.26c-0.06-0.07-0.15-0.1-0.24-0.1  c-0.26,0.09-0.5,0.22-0.73,0.37l-1.41,0.84l-0.82,0.5l-2-1.11V6.44l3.05-1.76c0.16-0.1,0.21-0.31,0.11-0.47  c-0.03-0.05-0.07-0.08-0.11-0.11c-0.34-0.22-0.72-0.39-1.12-0.48c-0.41-0.11-0.84-0.17-1.27-0.17c-1.24-0.02-2.44,0.48-3.3,1.37  c-0.89,0.86-1.39,2.06-1.37,3.3c-0.02,1.24,0.48,2.44,1.37,3.3c0.86,0.89,2.06,1.39,3.3,1.37c0.97,0,1.91-0.3,2.69-0.87  c0.81-0.56,1.42-1.36,1.74-2.29c0.14-0.35,0.22-0.72,0.24-1.1l0,0L20.51,8.53z" style="fill: rgb(255, 255, 255);" vector-effect="non-scaling-stroke"/></g></svg>