<svg version="1.2" xmlns="http://www.w3.org/2000/svg" xmlns:xlink="http://www.w3.org/1999/xlink" overflow="visible" preserveAspectRatio="none" viewBox="0 0 48 48" width="40" height="40"><g>
	<g>
		<path class="st0" d="M25,9h-2v14H10v2h13v14h2V25h14v-2H25V9z M24,0C10.7,0,0,10.7,0,24c0,13.3,10.7,24,24,24s24-10.7,24-24    C48,10.7,37.3,0,24,0z M24,45.8C12,45.8,2.2,36,2.2,24S12,2.2,24,2.2S45.8,12,45.8,24S36,45.8,24,45.8z" style="fill: rgb(52, 58, 64);" vector-effect="non-scaling-stroke"/>
	</g>
</g><g/></svg>