<svg version="1.2" xmlns="http://www.w3.org/2000/svg" xmlns:xlink="http://www.w3.org/1999/xlink" overflow="visible" preserveAspectRatio="none" viewBox="0 -18.63597733711049 669 669" width="24" height="25"><g><polygon xmlns:default="http://www.w3.org/2000/svg" points="78.9,452.5 263.1,228.9 394.6,360.4 668.3,34.2 647.2,18.4 394.6,323.6 263.1,192.1 78.9,410.4 78.9,0 52.6,0   52.6,105.2 0,105.2 0,131.5 52.6,131.5 52.6,236.8 0,236.8 0,263.1 52.6,263.1 52.6,368.3 0,368.3 0,394.6 52.6,394.6 52.6,499.9   0,499.9 0,526.2 52.6,526.2 52.6,631.4 657.7,631.4 657.7,605.1 78.9,605.1 " style="fill: rgb(255, 255, 255);" vector-effect="non-scaling-stroke"/></g></svg>