<svg xmlns="http://www.w3.org/2000/svg" width="50.161" height="50.041" viewBox="0 0 50.161 50.041">
  <g id="Group_563" data-name="Group 563" transform="translate(438.335 -299.004)">
    <path id="Path_136" data-name="Path 136" d="M-389.712,315.431c-.1-.3-.133-.916-.493-.823a8.326,8.326,0,0,0-2.508,1.029c-.444.294.109.865.241,1.288,2.493,7.987,1.132,15.276-4.4,21.517a20.732,20.732,0,0,1-20.843,6.89c-8.944-1.9-14.828-7.563-16.883-16.486-2.072-9,.787-16.685,8.134-22.268,6.979-5.3,14.715-5.849,22.741-2.31.773.341.891.617.336,1.282-.681.817-1.261,1.718-2,2.742l10.886,1.586-4.112-10.787c-.105.054-.158.064-.181.1-.538.743-1.109,1.464-1.595,2.24-.4.641-.729.688-1.436.332a24.981,24.981,0,0,0-14.857-2.518c-13.589,1.814-23.418,14.511-21.392,27.99,1.54,10.249,7.369,17.318,17.211,20.459,9.784,3.122,18.681.831,25.775-6.624C-388.128,333.754-386.6,325-389.712,315.431Z" fill="#fff"/>
    <path id="Path_137" data-name="Path 137" d="M-376.222,356.007a3.307,3.307,0,0,0-2.423,3.354c-.07,2.839-.066,5.682-.006,8.521a3.381,3.381,0,0,0,3.689,3.533c1.879.019,3.758,0,5.637,0,1.835,0,3.67.005,5.505,0,2.566-.009,3.9-1.271,3.943-3.825.043-2.665.022-5.332,0-8-.008-1.182-.267-2.536-1.352-2.943-1.944-.73-1.847-2.125-1.789-3.682a6.614,6.614,0,0,0-.232-1.683,5.854,5.854,0,0,0-5.989-4.826,5.863,5.863,0,0,0-6.089,4.857,14.264,14.264,0,0,0-.222,3.649C-375.536,355.519-375.644,355.83-376.222,356.007Zm3.823-3.3a2.916,2.916,0,0,1,3.073-3.156,2.959,2.959,0,0,1,3.2,3.049c.178,3.213.178,3.213-3.218,3.213C-372.47,355.815-372.47,355.815-372.4,352.708Zm.119,8.316a2.945,2.945,0,0,1,2.625-2.039,2.992,2.992,0,0,1,3.015,1.41c.656,1.018.832,2.238-.122,2.971-1.3,1-1.227,2.222-1.206,3.556.007.449.272,1.163-.208,1.309a3.172,3.172,0,0,1-2.16.013c-.72-.376-.158-1.349-.342-2.037a2.354,2.354,0,0,0-.967-2.583A2.107,2.107,0,0,1-372.28,361.025Z" transform="translate(-43.978 -34.996)" fill="#fff"/>
  </g>
</svg>
