<?xml version="1.0" encoding="utf-8"?>
<!-- Generator: Adobe Illustrator 21.1.0, SVG Export Plug-In . SVG Version: 6.00 Build 0)  -->
<svg version="1.1" id="Layer_1" xmlns="http://www.w3.org/2000/svg" xmlns:xlink="http://www.w3.org/1999/xlink" x="0px" y="0px"
	 viewBox="0 0 15 15" style="enable-background:new 0 0 15 15;" xml:space="preserve">
<style type="text/css">
	.st0{fill:none;}
	.st2{fill:#68a4eb;}
	.st1{fill:#FFFFFF;}
</style>
<title>Asset 24</title>
<g id="Layer_2">
	<g id="Layer_1-2">
		<path class="st0" d="M7.5,15H15V7.5C15,11.6,11.6,15,7.5,15z"/>
		<path class="st0" d="M7.5,0C11.6,0,15,3.4,15,7.5V0H7.5z"/>
		<path class="st2" d="M7.5,0C3.4,0,0,3.4,0,7.5S3.4,15,7.5,15S15,11.6,15,7.5S11.6,0,7.5,0z M11.9,11L11,11.9L7.5,8.4L4,11.9L3.1,11l3.5-3.5
			L3.1,4L4,3.1l3.5,3.5L11,3.1L11.9,4L8.4,7.5L11.9,11z"/>
		<polygon class="st1" points="11,3.1 7.5,6.6 4,3.1 3.1,4 6.6,7.5 3.1,11 4,11.9 7.5,8.4 11,11.9 11.9,11 8.4,7.5 11.9,4 		"/>
	</g>
</g>
</svg>
