<svg xmlns="http://www.w3.org/2000/svg" viewBox="0 0 37.56 41.5"><defs><style>.cls-1{fill:none;}</style></defs><title>Asset 18</title><g id="Layer_2" data-name="Layer 2"><g id="Layer_1-2" data-name="Layer 1"><path class="cls-1" d="M2,38.5a1,1,0,0,0,1,1H8.94V29.44H2Z"/><rect class="cls-1" x="9.94" y="9" width="8.33" height="9.22"/><rect class="cls-1" x="19.28" y="29.44" width="8.33" height="10.06"/><rect class="cls-1" x="9.94" y="19.22" width="8.33" height="9.22"/><rect class="cls-1" x="2" y="19.22" width="6.94" height="9.22"/><rect class="cls-1" x="2" y="9" width="6.94" height="9.22"/><rect class="cls-1" x="9.94" y="29.44" width="8.33" height="10.06"/><rect class="cls-1" x="28.61" y="9" width="6.94" height="9.22"/><rect class="cls-1" x="19.28" y="19.22" width="8.33" height="9.22"/><rect class="cls-1" x="19.28" y="9" width="8.33" height="9.22"/><rect class="cls-1" x="28.61" y="19.22" width="6.94" height="9.22"/><path class="cls-1" d="M28.61,39.5h5.94a1,1,0,0,0,1-1V29.44H28.61Z"/><path d="M34.56,3.94H29.94V1.34A1.34,1.34,0,0,0,28.6,0H28a1.34,1.34,0,0,0-1.34,1.34v2.6H10.88V1.34A1.34,1.34,0,0,0,9.54,0H9A1.34,1.34,0,0,0,7.61,1.34v2.6H3a3,3,0,0,0-3,3V38.5a3,3,0,0,0,3,3H34.56a3,3,0,0,0,3-3V6.94A3,3,0,0,0,34.56,3.94Zm-6.88-2.6A.34.34,0,0,1,28,1h.59a.34.34,0,0,1,.34.34V5.56a.34.34,0,0,1-.34.34H28a.34.34,0,0,1-.34-.34V1.34Zm-19.06,0A.34.34,0,0,1,9,1h.59a.34.34,0,0,1,.34.34V5.56a.34.34,0,0,1-.34.34H9a.34.34,0,0,1-.34-.34V1.34ZM8.94,39.5H3a1,1,0,0,1-1-1V29.44H8.94Zm0-11.06H2V19.22H8.94Zm0-10.22H2V9H8.94ZM18.28,39.5H9.94V29.44h8.33Zm0-11.06H9.94V19.22h8.33Zm0-10.22H9.94V9h8.33ZM27.61,39.5H19.28V29.44h8.33Zm0-11.06H19.28V19.22h8.33Zm0-10.22H19.28V9h8.33ZM35.56,38.5a1,1,0,0,1-1,1H28.61V29.44h6.94Zm0-10.06H28.61V19.22h6.94Zm0-10.22H28.61V9h6.94Z"/></g></g></svg>