<svg xmlns="http://www.w3.org/2000/svg" width="20.916" height="18.589" viewBox="0 0 20.916 18.589">
  <path id="Icon_awesome-edit" data-name="Icon awesome-edit" d="M14.62,3.025,17.9,6.3a.355.355,0,0,1,0,.5L9.964,14.732l-3.37.374a.706.706,0,0,1-.781-.781l.374-3.37,7.931-7.931A.355.355,0,0,1,14.62,3.025ZM20.5,2.193,18.73.421a1.42,1.42,0,0,0-2,0L15.44,1.706a.355.355,0,0,0,0,.5l3.275,3.275a.355.355,0,0,0,.5,0L20.5,4.2a1.42,1.42,0,0,0,0-2ZM13.944,12.575v3.7H2.324V4.651h8.345a.446.446,0,0,0,.309-.127L12.43,3.072a.436.436,0,0,0-.309-.744H1.743A1.743,1.743,0,0,0,0,4.07V16.853A1.743,1.743,0,0,0,1.743,18.6H14.525a1.743,1.743,0,0,0,1.743-1.743v-5.73a.437.437,0,0,0-.744-.309l-1.453,1.453A.446.446,0,0,0,13.944,12.575Z" transform="translate(0 -0.007)" fill="#17345c"/>
</svg>
