<svg xmlns="http://www.w3.org/2000/svg" xmlns:xlink="http://www.w3.org/1999/xlink" width="148.004" height="62.027" viewBox="0 0 148.004 62.027">
  <defs>
    <linearGradient id="linear-gradient" x1="30438.811" y1="-31342.311" x2="30438.975" y2="-31342.311" gradientUnits="objectBoundingBox">
      <stop offset="0" stop-color="#818386"/>
      <stop offset="0.099" stop-color="#8d8f92"/>
      <stop offset="0.281" stop-color="#afb1b3"/>
      <stop offset="0.5" stop-color="#e0e1e3"/>
      <stop offset="0.588" stop-color="#d7d8da"/>
      <stop offset="0.731" stop-color="#bec0c2"/>
      <stop offset="0.91" stop-color="#97999b"/>
      <stop offset="1" stop-color="#818386"/>
    </linearGradient>
    <linearGradient id="linear-gradient-2" x1="20.722" y1="-31.418" x2="23.309" y2="-31.418" xlink:href="#linear-gradient"/>
    <linearGradient id="linear-gradient-3" x1="-0.107" y1="0.236" x2="1.107" y2="0.764" xlink:href="#linear-gradient"/>
    <linearGradient id="linear-gradient-4" x1="32419.803" y1="-32276.311" x2="32419.992" y2="-32276.311" xlink:href="#linear-gradient"/>
    <linearGradient id="linear-gradient-5" x1="21.116" y1="-31.912" x2="23.705" y2="-31.912" xlink:href="#linear-gradient"/>
    <linearGradient id="linear-gradient-6" x1="31998.123" y1="-33020.438" x2="31998.209" y2="-33020.438" xlink:href="#linear-gradient"/>
    <linearGradient id="linear-gradient-7" x1="30233.711" y1="-32652.783" x2="30233.813" y2="-32652.783" xlink:href="#linear-gradient"/>
    <linearGradient id="linear-gradient-8" x1="21.308" y1="-32.153" x2="23.897" y2="-32.153" xlink:href="#linear-gradient"/>
    <linearGradient id="linear-gradient-9" x1="20.909" y1="-31.639" x2="23.496" y2="-31.639" xlink:href="#linear-gradient"/>
    <linearGradient id="linear-gradient-10" x1="0.059" y1="-0.004" x2="0.941" y2="1.004" gradientUnits="objectBoundingBox">
      <stop offset="0.202" stop-color="#003b7c"/>
      <stop offset="0.506" stop-color="#5b7bb0"/>
      <stop offset="0.803" stop-color="#003b7c"/>
    </linearGradient>
    <linearGradient id="linear-gradient-11" x1="0.059" y1="-0.004" x2="0.941" y2="1.004" xlink:href="#linear-gradient-10"/>
    <linearGradient id="linear-gradient-12" x1="0.059" y1="-0.005" x2="0.941" y2="1.004" xlink:href="#linear-gradient-10"/>
  </defs>
  <g id="Group_3569" data-name="Group 3569" transform="translate(23504.098 23335.428)">
    <g id="Group_3568" data-name="Group 3568" transform="translate(365.903 120.573)">
      <g id="Group_3567" data-name="Group 3567" transform="translate(-23870 -23456)">
        <g id="Group_3562" data-name="Group 3562" transform="translate(0 44.168)">
          <path id="Path_1469" data-name="Path 1469" d="M1360.832-36.126v-4.769h1.5c2.107,0,4.415.076,4.415,2.236,0,2.285-2.227,2.533-4.857,2.533h-1.053m0,2.609h1.942l5.835,7.024h6.112l-7.129-7.621c1.5-.472,4.617-1.391,4.617-4.6,0-4.67-6.316-4.795-9.435-4.795h-6.558c-.69,0-.852.074-.852.523v16.5s.163,0,.852,0h3.766l.85,0Z" transform="translate(-1293.151 43.924)" fill="#fff"/>
          <path id="Path_1470" data-name="Path 1470" d="M1461.937-29.333c-3.037,0-4.333-2.435-4.333-6.31s1.3-6.332,4.333-6.332,4.332,2.434,4.332,6.332c0,3.875-1.3,6.31-4.332,6.31m10.083-6.31c0-6.01-3.847-8.941-10.083-8.941s-10.083,2.906-10.083,8.941c0,6.012,3.805,8.918,10.083,8.918S1472.02-29.631,1472.02-35.643Z" transform="translate(-1352.04 44.584)" fill="#fff"/>
          <path id="Path_1471" data-name="Path 1471" d="M1315.126-34.038h7.66v-2.683h-7.66v-4.1h8.546l1.163-2.684H1310.44c-.561.006-.747.074-.78.392v16.62l14.981,0v-2.162l0-.522h-9.52Z" transform="translate(-1265.257 43.924)" fill="#fff"/>
          <path id="Path_1472" data-name="Path 1472" d="M1528.338-43.51h-2.957l-.852,0s.1,10.276.1,11.07L1515.5-43.187c-.243-.272-.324-.323-.932-.323h-3.321l-.095,0c-.527.005-.715.072-.754.367v16.653s.162,0,.849,0h2.957c.688,0,.851,0,.851,0v-9.468c0-1.143-.034-1.9-.034-2.223,0,0,9.336,10.921,9.713,11.337a1.152,1.152,0,0,0,.931.349h2.672l.849.011V-43.514Z" transform="translate(-1387.772 43.931)" fill="#fff"/>
          <path id="Path_1473" data-name="Path 1473" d="M1201.178-34.038h7.657v-2.683h-7.657v-4.1h8.545l1.163-2.684H1196.5c-.61.006-.775.087-.786.481v16.531l14.981,0v-2.162l.005-.522h-9.519Z" transform="translate(-1195.711 43.924)" fill="#fff"/>
          <path id="Path_1474" data-name="Path 1474" d="M1253.13-32.709l-6.5-10.126c-.242-.272-.323-.321-.93-.321h-3.32l-.851,0v17.016s.162-.006.851-.006h2.956c.688,0,.849.006.849.006v-9.469c0-1.143-.031-1.591-.031-1.914,0,0,6.416,10.273,7.051,11h.035c.64-.727,6.724-10.995,6.724-10.995,0,.323-.035.771-.035,1.914v9.469s.163-.006.85-.006h2.956c.69,0,.852.006.852.006V-43.152l-.852,0h-3.32c-.608,0-.687.049-.93.321L1253.3-32.709Z" transform="translate(-1223.672 43.712)" fill="#fff"/>
          <path id="Path_1475" data-name="Path 1475" d="M1419.085-36.317c-3.371-1.614-7.962-1.759-7.962-3.646,0-1.491,1.493-1.939,3.255-1.939a17.623,17.623,0,0,1,5.362,1.093.561.561,0,0,0,.42-.249l.26-.337,1.371-1.745h0v0l-.039-.016c-.085-.041-.323-.15-.656-.281-.271-.1-.438-.162-.523-.189a22.2,22.2,0,0,0-6.35-.957c-4.443,0-8.424,1.491-8.424,5.067a4.1,4.1,0,0,0,2.972,4.161c3.906,1.54,7.827,1.453,7.827,3.663,0,1.541-.957,2.285-3.1,2.285a23.524,23.524,0,0,1-6.356-1.092.513.513,0,0,0-.423.248l-.419.78-.735,1.362.6.226a24.527,24.527,0,0,0,7.485,1.159c4.827,0,8.362-1.581,8.273-5.241A4.647,4.647,0,0,0,1419.085-36.317Z" transform="translate(-1323.789 44.584)" fill="#fff"/>
        </g>
        <g id="Group_3563" data-name="Group 3563" transform="translate(65.814 5.124)">
          <path id="Path_1476" data-name="Path 1476" d="M1399.728-90.17l-.012.021A.107.107,0,0,0,1399.728-90.17Z" transform="translate(-1386.034 111.45)" fill="url(#linear-gradient)"/>
          <path id="Path_1477" data-name="Path 1477" d="M1379.918-128.115l-.116-.145-6.1-7.471-.036-.046-5.91-7.236c-1.135-1.358-1.037-1.629-.981-1.766l-2.138,3.6a.358.358,0,0,0-.021.238,2.9,2.9,0,0,0,.519.82l.115.143,6.1,7.472.037.044,5.909,7.237c1.087,1.3,1.094,1.564,1,1.726l2.156-3.619C1380.545-127.291,1380.29-127.653,1379.918-128.115Z" transform="translate(-1364.605 144.779)" fill="url(#linear-gradient-2)"/>
        </g>
        <g id="Group_3564" data-name="Group 3564" transform="translate(68.851 0)">
          <path id="Path_1478" data-name="Path 1478" d="M1387.71-141.263l-.116-.145-6.1-7.472-.035-.046-5.91-7.236c-1.135-1.359-1.037-1.629-.981-1.767l-2.138,3.6a.359.359,0,0,0-.02.243,2.952,2.952,0,0,0,.517.814l.115.144,6.1,7.472.037.044,5.91,7.237c1.086,1.3,1.094,1.565,1,1.727l2.155-3.62C1388.337-140.44,1388.081-140.8,1387.71-141.263Z" transform="translate(-1372.397 157.928)" fill="url(#linear-gradient-3)"/>
          <path id="Path_1479" data-name="Path 1479" d="M1407.52-103.316l-.011.021Z" transform="translate(-1393.827 124.597)" fill="url(#linear-gradient-4)"/>
        </g>
        <g id="Group_3565" data-name="Group 3565" transform="translate(59.739 15.379)">
          <path id="Path_1480" data-name="Path 1480" d="M1364.839-100.764a.359.359,0,0,0,.017-.263,3.47,3.47,0,0,0-.526-.779l-.116-.145-6.1-7.472-.036-.046-5.91-7.235c-1.135-1.358-1.036-1.621-.972-1.758l-2.16,3.627c-.1.171.14.561.511,1.021l.115.145,6.1,7.472.036.045,5.91,7.236c1.087,1.3,1.1,1.564,1.005,1.727Z" transform="translate(-1349.013 118.462)" fill="url(#linear-gradient-5)"/>
          <path id="Path_1481" data-name="Path 1481" d="M1384.153-63.873l-.011.021Z" transform="translate(-1370.453 85.145)" fill="url(#linear-gradient-6)"/>
        </g>
        <g id="Group_3566" data-name="Group 3566" transform="translate(56.703 20.502)">
          <path id="Path_1482" data-name="Path 1482" d="M1376.361-50.727l-.012.021A.169.169,0,0,0,1376.361-50.727Z" transform="translate(-1362.661 71.999)" fill="url(#linear-gradient-7)"/>
          <path id="Path_1483" data-name="Path 1483" d="M1357.037-87.6h0a.338.338,0,0,0,.029-.279,3.406,3.406,0,0,0-.527-.782l-.116-.145-6.1-7.472-.036-.046-5.91-7.236c-1.135-1.359-1.036-1.62-.972-1.759l-2.159,3.628c-.1.171.139.56.51,1.02l.116.145,6.1,7.471.037.046,5.909,7.238c1.085,1.3,1.1,1.563,1.006,1.725Z" transform="translate(-1341.223 105.316)" fill="url(#linear-gradient-8)"/>
        </g>
        <path id="Path_1484" data-name="Path 1484" d="M1363.59-119.3l5.91,7.236c1.135,1.36,1.091,1.586.988,1.747l2.171-3.64c.09-.173-.164-.536-.536-1l-.116-.144-6.1-7.472-.036-.046-5.91-7.236c-1.135-1.359-1.037-1.62-.973-1.758l-2.159,3.628c-.1.171.139.56.511,1.021l.115.144,6.1,7.472Z" transform="translate(-1294.03 141.866)" fill="url(#linear-gradient-9)"/>
        <path id="Path_1485" data-name="Path 1485" d="M1361.265-98.333l-8.154-3.392-.05-.019-8.42-3.5-.13-.052c-.26-.093-.826-.269-1.063-.135a.16.16,0,0,0-.064.068l-2.12,3.577c.09-.113.348-.319,1.889.346l8.155,3.392.05.021,8.419,3.5.121.048c.254.091.833.275,1.074.138a.555.555,0,0,0,.1-.118l2.087-3.527C1363.072-97.874,1362.8-97.669,1361.265-98.333Z" transform="translate(-1284.545 125.919)" fill="url(#linear-gradient-10)"/>
        <path id="Path_1486" data-name="Path 1486" d="M1369.056-111.481l-8.155-3.392-.05-.019-8.419-3.5-.131-.053c-.259-.093-.825-.27-1.063-.135a.169.169,0,0,0-.064.068l-2.12,3.577c.091-.113.348-.318,1.89.346l8.155,3.392.05.021,8.419,3.5.121.048c.253.092.833.275,1.073.139a.526.526,0,0,0,.1-.119l2.087-3.526C1370.862-111.022,1370.6-110.817,1369.056-111.481Z" transform="translate(-1289.299 133.944)" fill="url(#linear-gradient-11)"/>
        <path id="Path_1487" data-name="Path 1487" d="M1376.846-124.628l-8.154-3.392-.05-.019-8.42-3.5-.13-.052c-.26-.094-.826-.269-1.063-.135a.161.161,0,0,0-.063.068l-2.121,3.577c.09-.112.349-.318,1.89.347l8.155,3.393.05.021,8.419,3.5.121.048c.253.092.832.276,1.073.14a.562.562,0,0,0,.1-.118l2.086-3.528C1378.653-124.169,1378.387-123.963,1376.846-124.628Z" transform="translate(-1294.054 141.967)" fill="url(#linear-gradient-12)"/>
        <path id="Path_1488" data-name="Path 1488" d="M1564.961-5.13v1.966h-.318V-5.13h-.743v-.186h1.807v.186Z" transform="translate(-1420.425 64.786)" fill="#fff"/>
        <path id="Path_1489" data-name="Path 1489" d="M1571.51-3.164V-5.136l-.765,1.973h-.29l-.775-1.954v1.954h-.253V-5.316h.464l.747,1.841.714-1.841h.45v2.152Z" transform="translate(-1423.798 64.786)" fill="#fff"/>
      </g>
    </g>
  </g>
</svg>
