<?xml version="1.0" encoding="UTF-8"?>
<svg id="Layer_1" xmlns="http://www.w3.org/2000/svg" viewBox="0 0 652 120">
  <defs>
    <style>
      .cls-1 {
        fill: #f6b100;
      }

      .cls-2 {
        fill: #003b6b;
      }
    </style>
  </defs>
  <g id="layer">
    <g>
      <path class="cls-2" d="M395.5,67.1c-1.3-7.4-4.5-11.3-11.6-11.3s-11.9,7.2-12.1,11.3h23.7ZM371.9,76.3c.4,9.2,4.9,13.4,13,13.4s10.5-3.6,11.5-6.9h12.8c-4.1,12.5-12.8,17.8-24.8,17.8s-27-11.5-27-27.8,10.9-27.9,27-27.9,26.7,15.1,25.7,31.4h-38.2Z"/>
      <path class="cls-2" d="M438.8,45.6h10.6v9.7h-10.6v26.9c0,4.9,1.2,6.1,6.1,6.1s3-.1,4.5-.4v11.4c-2.5.4-5.6.5-8.5.5-8.9,0-16.7-2-16.7-12.6v-31.9h-8.8v-9.7h8.8v-19.4h14.5v19.4s.1,0,.1,0Z"/>
      <path class="cls-1" d="M349.4,98.8h0c0,.3-.2.4-.4.4h-13.9c-.2,0-.3-.1-.3-.2l-48.4-72.5h0v-.2c0-.2.2-.4.3-.4h15.1c.2,0,.3.1.4.2l47.2,72.7h0Z"/>
    </g>
    <polygon class="cls-2" points="348.8 75.2 348.8 26.1 333.8 26.1 333.8 50.2 348.8 75.2"/>
    <polygon class="cls-2" points="286 49.9 286 99.2 301.1 99.2 301.1 74.5 286 49.9"/>
    <polygon class="cls-2" points="605.4 28.6 605.4 29.5 608.1 29.5 608.1 36.8 609.2 36.8 609.2 29.5 612 29.5 612 28.6 605.4 28.6"/>
    <path class="cls-2" d="M613,28.6h1.6l2.3,6.9,2.3-6.9h1.6v8.2h-1.1v-6.8l-2.3,6.9h-1.1l-2.4-6.9v6.9h-.9v-8.3h0Z"/>
    <polygon class="cls-2" points="20.8 27.9 74.2 27.9 74.2 41.1 36.5 41.1 36.5 56.4 71.1 56.4 71.1 68.5 36.5 68.5 36.5 86 75 86 75 99.2 20.8 99.2 20.8 27.9"/>
    <g>
      <path class="cls-2" d="M104,46.9h10.4v9.5h-10.4v26.2c0,4.8,1.2,6,6,6s2.9-.1,4.4-.4v11.1c-2.4.4-5.5.5-8.3.5-8.7,0-16.3-2-16.3-12.3v-31.1h-8.6v-9.5h8.6v-18.7h14.2v18.7Z"/>
      <path class="cls-2" d="M125.2,27.9h14.2v26.9h.3c3.6-5.8,9.8-8.6,15.1-8.6,15.1,0,18.9,8.5,18.9,21.3v31.8h-14.2v-29.3c0-8.5-2.5-12.7-9.1-12.7s-11,4.3-11,14.8v27.1h-14.2V27.9Z"/>
      <path class="cls-2" d="M219.7,67.8c-1.3-7.2-4.4-11-11.3-11s-11.6,7-11.8,11h23.1ZM196.6,76.8c.4,9,4.8,13.1,12.7,13.1s10.3-3.5,11.2-6.7h12.5c-4,12.2-12.5,17.4-24.2,17.4s-26.4-11.2-26.4-27.2,10.7-27.3,26.4-27.3,26.1,14.8,25.1,30.7c0,0-37.3,0-37.3,0Z"/>
      <path class="cls-2" d="M243.8,47.1h13.5v10.1h.2c2.6-6.5,9.6-11,16.5-11s2.2.2,3.1.5v13.2c-1.3-.3-3.4-.5-5.1-.5-10.4,0-14,7.5-14,16.6v23.3h-14.2v-52.2Z"/>
    </g>
    <rect class="cls-2" x="513.9" y="27.9" width="15.7" height="71.3"/>
    <g>
      <path class="cls-2" d="M559.1,61.5h12.2c7.3,0,13.8-1.6,13.8-10.7s-6.5-10.7-13.8-10.7h-12.2v21.4ZM543.4,27.9h32.2c17.8,0,24.7,11.3,24.7,22.9s-6.9,22.9-24.7,22.9h-16.5v25.6h-15.7V27.9Z"/>
      <path class="cls-2" d="M452.7,98.8h0c0,.3.2.4.4.4h13.5c.2,0,.3-.1.3-.2l42.5-70.7h0v-.2c0-.2-.2-.3-.3-.3h-13.1c-.2,0-.3.1-.3.2l-43,70.8h0Z"/>
    </g>
  </g>
</svg>