<svg id="Group_3733" data-name="Group 3733" xmlns="http://www.w3.org/2000/svg" xmlns:xlink="http://www.w3.org/1999/xlink" width="21.786" height="21.785" viewBox="0 0 21.786 21.785">
  <defs>
    <clipPath id="clip-path">
      <rect id="Rectangle_202" data-name="Rectangle 202" width="21.786" height="21.786" fill="#2d383f"/>
    </clipPath>
  </defs>
  <g id="Group_49" data-name="Group 49" clip-path="url(#clip-path)">
    <path id="Path_62" data-name="Path 62" d="M9.184,115.048c-.473-.473-.584-.475-1.064.009-1.486,1.5-2.969,3-4.489,4.53-.7-.71-1.346-1.382-2.006-2.043a.879.879,0,0,0-1.551.34L0,117.911v6.681c0,.775,0,.775.775.775H7.552c.816-.608.843-1.048.1-1.787-.513-.514-1.014-1.039-1.545-1.533-.231-.215-.235-.333-.007-.56,1.429-1.421,2.842-2.859,4.26-4.29.407-.411.411-.552.016-.951s-.8-.8-1.2-1.2m-9.09,7.894q-.01.843-.036,1.686.027-.843.036-1.686" transform="translate(0 -103.58)" fill="#2d383f"/>
    <path id="Path_63" data-name="Path 63" d="M124.62,0h-6.875c-.819.62-.845,1.049-.105,1.786.5.5.989,1.017,1.511,1.5.26.239.278.368.011.632-1.448,1.423-2.865,2.877-4.309,4.3-.32.315-.307.553,0,.846.442.423.869.863,1.3,1.3.51.512.548.5,1.074-.009,1.522-1.46,3.057-2.907,4.619-4.389.522.53,1.214,1.184,1.846,1.891a.9.9,0,0,0,1.528-.374l.046.012.031-.037V.775c0-.775,0-.775-.678-.775" transform="translate(-103.512)" fill="#2d383f"/>
  </g>
</svg>
