<svg xmlns="http://www.w3.org/2000/svg" width="35.873" height="31.891" viewBox="0 0 35.873 31.891">
  <path id="Icon_awesome-file-export" data-name="Icon awesome-file-export" d="M23.918,7.593a1.49,1.49,0,0,0-.436-1.053l-6.1-6.1A1.494,1.494,0,0,0,16.325,0h-.38V7.973h7.973ZM35.566,19.184l-5.961-6a1,1,0,0,0-1.707.7v4.055H23.912v3.986H27.9v4.061a1,1,0,0,0,1.707.7l5.961-6.011A1.06,1.06,0,0,0,35.566,19.184ZM11.959,20.928V18.935a1,1,0,0,1,1-1H23.918V9.966H15.447a1.5,1.5,0,0,1-1.495-1.495V0H1.495A1.491,1.491,0,0,0,0,1.495V30.4a1.491,1.491,0,0,0,1.495,1.495H22.423A1.491,1.491,0,0,0,23.918,30.4V21.925H12.956A1,1,0,0,1,11.959,20.928Z" fill="#fff"/>
</svg>
