<svg version="1.2" xmlns="http://www.w3.org/2000/svg" xmlns:xlink="http://www.w3.org/1999/xlink" overflow="visible" preserveAspectRatio="none" viewBox="0 0 22 22" id="Layer_1_1588026116978" width="30" height="30"><g transform="translate(1, 1)"><path d="M4.38,4.39s.06.38.21.53a.84.84,0,0,0,.59.31,1.81,1.81,0,0,0,.72-.14,1.23,1.23,0,0,0,.6-.45.44.44,0,0,0,0-.34.22.22,0,0,0-.25-.2,5.66,5.66,0,0,0-.66.16c-.18.06-.54.17-.7.2A1,1,0,0,1,4.38,4.39Z" vector-effect="non-scaling-stroke" style="fill: rgb(255, 255, 255);"/><path d="M8.84,9.45c-.07,0-1.51-.62-1.72-.72s-.57-.25-.77-.33c.55-.84.89-1.47.94-1.57S8,5.53,8,5.46a2.61,2.61,0,0,0,0-.39c0-.07-.23.06-.51.15s-.84.45-1,.5-.88.3-1.23.41-1,.32-1.27.39-.5.08-.65.12a1.08,1.08,0,0,0,.06.28.68.68,0,0,0,.35.26,1.5,1.5,0,0,0,.56,0A1.05,1.05,0,0,0,4.61,7s0-.2,0-.24.71-.2,1-.27A12.11,12.11,0,0,1,6.93,6.1c0,.14-.81,1.65-1,2.11S4.2,10.65,3.89,11s-.79.95-1,1.1A1.53,1.53,0,0,0,3.37,12a8.06,8.06,0,0,0,1.26-1.31A22.12,22.12,0,0,0,6.25,8.56h0c.08,0,.77.6,1,.72a11.37,11.37,0,0,0,1,.59c.15.06.74.34.77.24A1.54,1.54,0,0,0,8.84,9.45Z" vector-effect="non-scaling-stroke" style="fill: rgb(255, 255, 255);"/><path d="M12.93,3.9h1.14l3,8H16l-.84-2.41H11.83L11,11.9H9.9Zm-.77,4.69h2.62L13.49,4.86h0Z" vector-effect="non-scaling-stroke" style="fill: rgb(255, 255, 255);"/><path d="M0,1.65V15.32H7.26a.65.65,0,0,1,.58.28L9.71,18l.29.34c.64-1,1.24-1.83,1.83-2.74a.57.57,0,0,1,.55-.3H20V1.65ZM18.5,14H1.5V3h17Z" vector-effect="non-scaling-stroke" style="fill: rgb(255, 255, 255);"/></g></svg>