<svg version="1.2" xmlns="http://www.w3.org/2000/svg" xmlns:xlink="http://www.w3.org/1999/xlink" overflow="visible" preserveAspectRatio="none" viewBox="0 0 52 52" width="30" height="30"><g>
	<g>
		<path class="st0" d="M26,0C11.7,0,0,11.7,0,26c0,14.3,11.7,26,26,26c14.3,0,26-11.7,26-26C52,11.7,40.3,0,26,0z M26,50    C12.8,50,2,39.2,2,26C2,12.8,12.8,2,26,2s24,10.8,24,24C50,39.2,39.2,50,26,50z M26.1,4.8c-11.6,0-21,9.4-21,21    c0,11.6,9.4,21,21,21c11.6,0,21-9.4,21-21C47.1,14.2,37.7,4.8,26.1,4.8z M26.1,44.8c-10.5,0-19-8.5-19-19s8.5-19,19-19    s19,8.5,19,19S36.6,44.8,26.1,44.8z M26.1,10.2c-8.8,0-16,7.2-16,16c0,8.8,7.2,16,16,16s16-7.2,16-16    C42.1,17.4,34.9,10.2,26.1,10.2z M26.1,40.2c-7.7,0-14-6.3-14-14c0-7.7,6.3-14,14-14s14,6.3,14,14C40.1,34,33.8,40.2,26.1,40.2z     M25.9,15.5c-6.1,0-11,4.9-11,11c0,6.1,4.9,11,11,11s11-4.9,11-11C36.9,20.4,31.9,15.5,25.9,15.5z M25.9,35.5c-5,0-9-4-9-9    c0-5,4-9,9-9c5,0,9,4,9,9C34.9,31.5,30.8,35.5,25.9,35.5z M26,22c-2.2,0-4,2-4,4.5c0,2.5,1.8,4.5,4,4.5s4-2,4-4.5    C30,24,28.2,22,26,22z" style="fill: rgb(255, 255, 255);" vector-effect="non-scaling-stroke"/>
	</g>
</g><g/></svg>